<?xml version="1.0" standalone="no"?>
<!DOCTYPE svg PUBLIC "-//W3C//DTD SVG 20010904//EN"
 "http://www.w3.org/TR/2001/REC-SVG-20010904/DTD/svg10.dtd">
<svg version="1.0" xmlns="http://www.w3.org/2000/svg"
 width="1080.000000pt" height="1080.000000pt" viewBox="0 0 1080.000000 1080.000000"
 preserveAspectRatio="xMidYMid meet">

<g transform="translate(0.000000,1080.000000) scale(0.100000,-0.100000)"
fill="#000000" stroke="none">
<path d="M3070 10624 c-131 -28 -292 -113 -361 -191 -234 -267 -148 -655 233
-1049 130 -134 165 -158 458 -309 123 -63 335 -125 431 -125 72 0 120 17 226
81 384 232 696 601 759 898 50 239 -37 474 -220 593 -109 71 -273 104 -426 87
-147 -16 -249 -58 -359 -147 l-53 -44 -47 45 c-86 82 -183 136 -296 162 -76
18 -259 18 -345 -1z m303 -315 c79 -26 135 -80 207 -199 44 -71 63 -93 96
-109 54 -27 89 -26 150 4 40 20 58 39 98 99 87 136 161 185 291 194 194 12
299 -73 297 -238 -1 -116 -62 -240 -193 -396 -71 -86 -213 -220 -276 -262 -21
-14 -40 -28 -43 -32 -3 -3 -40 -28 -84 -55 -53 -34 -87 -49 -105 -47 -59 7
-222 62 -290 98 -40 22 -104 56 -142 76 -98 52 -180 122 -280 238 -146 171
-225 345 -205 452 26 141 293 239 479 177z"/>
<path d="M1515 10123 c-64 -10 -151 -36 -197 -59 -67 -34 -177 -141 -218 -212
l-35 -60 -40 23 c-122 70 -307 90 -438 46 -132 -44 -242 -139 -300 -256 -54
-110 -70 -200 -56 -317 35 -284 280 -521 653 -629 70 -20 79 -26 96 -59 26
-51 71 -87 118 -95 45 -7 126 17 306 92 597 250 898 614 822 994 -60 294 -309
510 -616 532 -36 3 -78 3 -95 0z m161 -330 c142 -47 244 -178 244 -314 0 -128
-86 -255 -263 -388 -88 -66 -250 -153 -395 -211 l-80 -32 -40 40 c-21 21 -50
41 -63 44 -68 15 -211 62 -259 86 -64 30 -153 93 -193 137 -43 45 -78 121 -84
181 -7 64 14 124 60 172 91 96 231 81 357 -37 67 -63 96 -79 154 -87 88 -12
157 36 191 132 54 156 71 191 104 225 67 66 166 86 267 52z"/>
<path d="M8130 9935 c-203 -37 -399 -139 -519 -271 -170 -186 -186 -431 -46
-706 91 -178 248 -357 378 -432 37 -21 67 -42 67 -47 0 -21 63 -77 99 -89 52
-17 415 -8 555 14 510 81 891 314 1041 638 82 178 67 336 -43 452 -86 89 -178
126 -342 133 -98 5 -129 2 -205 -17 -50 -12 -120 -38 -157 -56 -37 -19 -72
-34 -77 -34 -5 0 -21 32 -36 70 -55 143 -143 241 -271 302 -116 55 -286 71
-444 43z m312 -331 c52 -26 85 -66 114 -134 15 -37 18 -74 19 -202 2 -155 2
-157 30 -193 32 -43 78 -65 132 -65 49 0 83 18 130 70 157 174 262 232 423
234 154 2 187 -48 114 -170 -41 -69 -140 -173 -204 -214 -25 -16 -49 -33 -55
-37 -25 -20 -186 -93 -249 -112 -170 -52 -351 -81 -516 -81 -96 0 -109 2 -143
25 -20 14 -58 35 -83 46 -117 49 -239 184 -318 348 -47 98 -63 180 -45 234 46
146 203 241 459 281 51 7 146 -7 192 -30z"/>
<path d="M9821 8639 c-148 -22 -297 -125 -374 -257 -121 -207 -123 -460 -6
-710 49 -107 109 -190 195 -273 96 -91 106 -94 359 -93 333 2 508 44 728 173
l77 46 0 391 0 391 -62 19 c-101 31 -268 22 -378 -20 -11 -4 -22 12 -44 65
-81 200 -269 302 -495 268z m166 -309 c56 -34 70 -76 98 -297 5 -47 33 -82 82
-105 59 -28 98 -20 179 37 89 62 125 75 221 82 76 5 85 4 117 -18 19 -13 37
-33 40 -44 10 -37 6 -96 -9 -124 -32 -62 -153 -146 -290 -199 -100 -40 -251
-61 -425 -61 l-155 0 -50 59 c-167 198 -194 484 -59 615 73 71 185 96 251 55z"/>
<path d="M8335 6813 c-46 -24 -66 -45 -86 -88 -35 -76 -20 -152 44 -213 24
-22 62 -39 147 -66 148 -45 570 -163 775 -216 88 -22 205 -55 260 -72 122 -38
186 -40 244 -8 48 27 91 103 91 159 0 47 -35 116 -74 146 -35 27 -221 85 -561
175 -126 34 -340 93 -474 131 -254 72 -313 80 -366 52z"/>
<path d="M1900 6746 c-713 -194 -1123 -311 -1185 -340 -70 -32 -107 -81 -113
-151 -8 -100 57 -185 153 -200 32 -6 98 10 340 78 313 89 505 142 815 227 107
29 200 61 221 75 112 74 99 255 -23 314 -56 26 -101 26 -208 -3z"/>
<path d="M6828 6549 c-37 -5 -132 -23 -210 -40 -349 -75 -431 -91 -553 -109
-257 -37 -373 -43 -723 -37 -435 7 -560 20 -1102 114 -143 25 -177 27 -440 27
-260 0 -294 -2 -390 -22 -226 -49 -394 -124 -537 -236 -108 -86 -184 -179
-245 -301 -27 -55 -65 -125 -84 -155 -44 -70 -151 -340 -169 -428 -17 -79 -20
-355 -5 -482 53 -451 233 -779 587 -1068 455 -371 1261 -671 1933 -721 558
-41 1108 -4 1575 105 408 97 825 334 1146 654 257 256 443 551 550 870 53 159
62 226 61 445 -2 525 -121 888 -369 1126 -115 111 -237 183 -393 235 -82 27
-93 27 -325 30 -132 1 -270 -2 -307 -7z m466 -377 c7 -11 -36 -76 -83 -126
-45 -49 -171 -132 -219 -146 -84 -23 -183 -5 -271 48 -105 64 -211 162 -175
162 4 0 57 11 118 25 61 13 136 29 166 34 70 11 457 14 464 3z m-3244 -48 c74
-8 151 -19 170 -23 l35 -7 -50 -37 c-27 -21 -87 -56 -132 -79 -68 -34 -95 -42
-156 -46 -83 -5 -155 12 -231 54 -59 33 -152 122 -140 134 22 22 330 24 504 4z
m-836 -198 c25 -35 85 -101 134 -147 104 -97 202 -154 337 -195 76 -23 108
-27 210 -27 104 0 131 3 205 28 140 45 268 118 418 237 l77 60 29 -39 c65 -84
237 -243 333 -306 209 -139 395 -184 584 -141 192 44 351 144 589 371 l105
101 65 -64 c183 -178 352 -270 537 -292 195 -23 364 30 539 169 88 70 185 177
221 245 l31 57 36 -49 c73 -100 132 -258 161 -434 21 -127 30 -421 16 -504
-40 -228 -237 -576 -461 -810 -185 -194 -528 -424 -783 -526 -213 -85 -525
-152 -897 -192 -183 -20 -763 -17 -935 5 -552 69 -1133 291 -1511 578 -110 84
-265 241 -324 328 -131 195 -192 429 -193 741 -1 157 0 168 27 240 39 104 125
290 148 320 11 13 34 56 53 95 18 38 50 89 71 112 41 45 111 103 124 103 5 0
29 -29 54 -64z m2583 53 c-3 -10 -87 -80 -144 -122 -127 -93 -258 -120 -370
-74 -78 32 -161 87 -233 153 l-55 52 402 -1 c222 -1 402 -5 400 -8z"/>
</g>
</svg>
